<svg width="48" height="48" viewBox="0 0 48 48" fill="none" xmlns="http://www.w3.org/2000/svg">
<path d="M43 24C43 34.4934 34.4934 43 24 43C13.5066 43 5 34.4934 5 24C5 13.5066 13.5066 5 24 5C34.4934 5 43 13.5066 43 24Z" stroke="#24ADB3" stroke-width="2"/>
<path fill-rule="evenodd" clip-rule="evenodd" d="M25.0932 31V24.7H27.1334L27.4667 21.9H25.0932V20.5364C25.0932 19.8154 25.1129 19.1 26.1875 19.1H27.276V17.098C27.276 17.0679 26.3411 17 25.3952 17C23.4197 17 22.1828 18.1599 22.1828 20.29V21.9H20V24.7H22.1828V31H25.0932Z" fill="#24ADB3"/>
</svg>
