<svg width="40" height="40" viewBox="0 0 40 40" fill="none" xmlns="http://www.w3.org/2000/svg">
<path d="M19.5 31C13.701 31 9 26.0752 9 20C9 13.9249 13.701 9 19.5 9C25.2989 9 30 13.9249 30 20C30 26.0752 25.2989 31 19.5 31ZM19.5 28.8C24.1392 28.8 27.9 24.8601 27.9 20C27.9 15.1399 24.1392 11.2 19.5 11.2C14.8608 11.2 11.1 15.1399 11.1 20C11.1 24.8601 14.8608 28.8 19.5 28.8ZM15.825 22.2H21.6C21.8899 22.2 22.125 21.9538 22.125 21.65C22.125 21.3463 21.8899 21.1 21.6 21.1H17.4C15.9502 21.1 14.775 19.8689 14.775 18.35C14.775 16.8312 15.9502 15.6 17.4 15.6H18.45V13.4H20.55V15.6H23.175V17.8H17.4C17.11 17.8 16.875 18.0463 16.875 18.35C16.875 18.6538 17.11 18.9 17.4 18.9H21.6C23.0497 18.9 24.225 20.1312 24.225 21.65C24.225 23.1689 23.0497 24.4 21.6 24.4H20.55V26.6H18.45V24.4H15.825V22.2Z" fill="#24ADB3"/>
</svg>
