<svg width="40" height="40" viewBox="0 0 40 40" fill="none" xmlns="http://www.w3.org/2000/svg">
<path d="M11.2278 8.28257C12.1538 7.95219 13.1583 7.91047 14.1085 8.16293C15.0587 8.41538 15.91 8.95012 16.5499 9.6965C17.1897 10.4429 17.588 11.3658 17.6922 12.3433C17.7964 13.3208 17.6016 14.307 17.1334 15.1714L32 30.0373L30.037 32L15.169 17.1341C14.3043 17.6003 13.3185 17.7937 12.3417 17.6886C11.3648 17.5836 10.4427 17.185 9.69692 16.5456C8.9511 15.9061 8.41655 15.0557 8.16373 14.1065C7.9109 13.1572 7.95166 12.1536 8.28062 11.228L11.3861 14.333C11.5782 14.5319 11.808 14.6905 12.062 14.7996C12.3161 14.9087 12.5893 14.9662 12.8658 14.9686C13.1423 14.971 13.4165 14.9183 13.6724 14.8136C13.9283 14.7089 14.1608 14.5543 14.3564 14.3588C14.5519 14.1633 14.7065 13.9309 14.8112 13.675C14.9159 13.4191 14.9686 13.145 14.9662 12.8685C14.9638 12.5921 14.9063 12.3188 14.7972 12.0648C14.6881 11.8108 14.5294 11.5811 14.3306 11.389L11.2265 8.28118L11.2278 8.28257ZM25.6197 10.8976L30.037 8.44358L32 10.4063L29.5456 14.823L27.0912 15.3144L24.1481 18.2584L22.1838 16.2957L25.1282 13.3517L25.6197 10.8976ZM16.2935 22.1852L18.2565 24.1479L10.8947 31.5086C10.6444 31.7596 10.3075 31.9053 9.95321 31.9159C9.59889 31.9266 9.25393 31.8012 8.98906 31.5657C8.72419 31.3301 8.55947 31.0022 8.52867 30.6491C8.49787 30.296 8.60333 29.9445 8.82342 29.6667L8.93171 29.5459L16.2935 22.1852Z" fill="#24ADB3"/>
</svg>
