<svg width="40" height="40" viewBox="0 0 40 40" fill="none" xmlns="http://www.w3.org/2000/svg">
<path d="M9 27.7778H31V30H9V27.7778ZM18.9 15.5556H21.1V24.4444H18.9V15.5556ZM15.5616 15.5556L13.5147 21.2363L11.4677 15.5556H9.13031L12.4147 24.4041H14.6147L17.899 15.5556H15.5616ZM25.5 22.2222V24.4444H23.3V15.5556H27.7C29.5225 15.5556 31 17.0479 31 18.8889C31 20.7299 29.5225 22.2222 27.7 22.2222H25.5ZM25.5 17.7778V20H27.7C28.3075 20 28.8 19.5026 28.8 18.8889C28.8 18.2752 28.3075 17.7778 27.7 17.7778H25.5ZM9 10H31V12.2222H9V10Z" fill="#24ADB3"/>
</svg>
