<svg width="40" height="40" viewBox="0 0 40 40" fill="none" xmlns="http://www.w3.org/2000/svg">
<path d="M9.09091 14.6934H12.3636V28H9.09091C8.48842 28 8 27.5036 8 26.8911V15.8023C8 15.1899 8.48842 14.6934 9.09091 14.6934ZM14.865 13.2598L21.8473 6.1624C22.0392 5.96729 22.3432 5.94535 22.5603 6.11089L23.4904 6.81995C24.0191 7.22305 24.2574 7.9099 24.0943 8.56096L22.8361 13.5845H29.8182C31.0232 13.5845 32 14.5775 32 15.8023V18.1357C32 18.4255 31.9441 18.7124 31.8357 18.9801L28.46 27.3133C28.2917 27.7288 27.8933 28 27.4512 28H15.6364C15.0339 28 14.5455 27.5036 14.5455 26.8911V14.0439C14.5455 13.7498 14.6604 13.4677 14.865 13.2598Z" fill="#24ADB3"/>
</svg>
