<svg width="40" height="40" viewBox="0 0 40 40" fill="none" xmlns="http://www.w3.org/2000/svg">
<path d="M18.297 19.0673L28.715 8L30.5921 9.99409L28.715 11.9882L32 15.4778L30.1229 17.4719L26.8379 13.9823L24.9608 15.9764L27.7765 18.9676L25.8994 20.9616L23.0837 17.9705L20.1741 21.0613C21.8813 23.7988 21.5998 27.5232 19.3294 29.935C16.7377 32.6883 12.5356 32.6883 9.94383 29.935C7.35206 27.1817 7.35206 22.7178 9.94383 19.9646C12.2142 17.5527 15.7202 17.2537 18.297 19.0673ZM17.4523 27.9409C19.0074 26.2889 19.0074 23.6107 17.4523 21.9587C15.8972 20.3067 13.376 20.3067 11.8209 21.9587C10.2659 23.6107 10.2659 26.2889 11.8209 27.9409C13.376 29.5929 15.8972 29.5929 17.4523 27.9409Z" fill="#24ADB2"/>
</svg>
