<svg width="40" height="40" viewBox="0 0 40 40" fill="none" xmlns="http://www.w3.org/2000/svg">
<path d="M21.0909 8L21.092 11.3404C23.0144 11.5834 24.8014 12.459 26.1714 13.8293C27.5415 15.1996 28.4169 16.9866 28.6596 18.9091H32V21.0909L28.6596 21.092C28.4166 23.0143 27.5412 24.8011 26.1711 26.1711C24.8011 27.5412 23.0143 28.4166 21.092 28.6596L21.0909 32H18.9091V28.6596C16.9866 28.4169 15.1996 27.5415 13.8293 26.1714C12.459 24.8014 11.5834 23.0144 11.3404 21.092L8 21.0909V18.9091H11.3404C11.5832 16.9865 12.4587 15.1993 13.829 13.829C15.1993 12.4587 16.9865 11.5832 18.9091 11.3404V8H21.0909ZM20 13.4545C18.264 13.4545 16.5992 14.1442 15.3717 15.3717C14.1442 16.5992 13.4545 18.264 13.4545 20C13.4545 21.736 14.1442 23.4008 15.3717 24.6283C16.5992 25.8558 18.264 26.5455 20 26.5455C21.736 26.5455 23.4008 25.8558 24.6283 24.6283C25.8558 23.4008 26.5455 21.736 26.5455 20C26.5455 18.264 25.8558 16.5992 24.6283 15.3717C23.4008 14.1442 21.736 13.4545 20 13.4545ZM20 17.8182C20.5787 17.8182 21.1336 18.0481 21.5428 18.4572C21.9519 18.8664 22.1818 19.4213 22.1818 20C22.1818 20.5787 21.9519 21.1336 21.5428 21.5428C21.1336 21.9519 20.5787 22.1818 20 22.1818C19.4213 22.1818 18.8664 21.9519 18.4572 21.5428C18.0481 21.1336 17.8182 20.5787 17.8182 20C17.8182 19.4213 18.0481 18.8664 18.4572 18.4572C18.8664 18.0481 19.4213 17.8182 20 17.8182Z" fill="#24ADB3"/>
</svg>
