<svg width="40" height="40" viewBox="0 0 40 40" fill="none" xmlns="http://www.w3.org/2000/svg">
<path d="M21.2907 25.5251L16.6498 23.0056C15.8431 23.8638 14.695 24.4 13.4211 24.4C10.9794 24.4 9 22.43 9 20C9 17.5699 10.9794 15.6 13.4211 15.6C14.6949 15.6 15.843 16.1362 16.6497 16.9942L21.2907 14.4748C21.204 14.1309 21.1579 13.7708 21.1579 13.4C21.1579 10.9699 23.1373 9 25.5789 9C28.0206 9 30 10.9699 30 13.4C30 15.8301 28.0206 17.8 25.5789 17.8C24.305 17.8 23.157 17.2638 22.3501 16.4057L17.7092 18.9251C17.796 19.2691 17.8421 19.6292 17.8421 20C17.8421 20.3708 17.796 20.7308 17.7093 21.0748L22.3503 23.5943C23.157 22.7363 24.305 22.2 25.5789 22.2C28.0206 22.2 30 24.17 30 26.6C30 29.03 28.0206 31 25.5789 31C23.1373 31 21.1579 29.03 21.1579 26.6C21.1579 26.2292 21.204 25.8691 21.2907 25.5251ZM13.4211 22.2C14.6419 22.2 15.6316 21.2151 15.6316 20C15.6316 18.7849 14.6419 17.8 13.4211 17.8C12.2002 17.8 11.2105 18.7849 11.2105 20C11.2105 21.2151 12.2002 22.2 13.4211 22.2ZM25.5789 15.6C26.7998 15.6 27.7895 14.615 27.7895 13.4C27.7895 12.185 26.7998 11.2 25.5789 11.2C24.3581 11.2 23.3684 12.185 23.3684 13.4C23.3684 14.615 24.3581 15.6 25.5789 15.6ZM25.5789 28.8C26.7998 28.8 27.7895 27.8151 27.7895 26.6C27.7895 25.3849 26.7998 24.4 25.5789 24.4C24.3581 24.4 23.3684 25.3849 23.3684 26.6C23.3684 27.8151 24.3581 28.8 25.5789 28.8Z" fill="#24ADB3"/>
</svg>
