<svg width="40" height="40" viewBox="0 0 40 40" fill="none" xmlns="http://www.w3.org/2000/svg">
<path d="M31 25.54C30.9989 28.7052 28.7798 31.3506 25.8159 32L25.1141 29.8898C26.4385 29.6732 27.5641 28.8639 28.2114 27.7426H25.5C24.2849 27.7426 23.3 26.7554 23.3 25.5376V21.1275C23.3 19.9097 24.2849 18.9225 25.5 18.9225H28.7319C28.1906 14.5717 24.4876 11.205 20 11.205C15.5124 11.205 11.8094 14.5717 11.2681 18.9225H14.5C15.715 18.9225 16.7 19.9097 16.7 21.1275V25.5376C16.7 26.7554 15.715 27.7426 14.5 27.7426H11.2C9.98497 27.7426 9 26.7554 9 25.5376V20.025C9 13.9361 13.9249 9 20 9C26.0751 9 31 13.9361 31 20.025V21.1261V21.1275V25.5376V25.54ZM28.8 25.5376V21.1275H25.5V25.5376H28.8ZM11.2 21.1275V25.5376H14.5V21.1275H11.2Z" fill="#24ADB3"/>
</svg>
