<svg width="48" height="48" viewBox="0 0 48 48" fill="none" xmlns="http://www.w3.org/2000/svg">
<path d="M43 24C43 34.4934 34.4934 43 24 43C13.5066 43 5 34.4934 5 24C5 13.5066 13.5066 5 24 5C34.4934 5 43 13.5066 43 24Z" stroke="#24ADB3" stroke-width="2"/>
<path fill-rule="evenodd" clip-rule="evenodd" d="M21.1088 17.0859C19.9692 17.1373 18.9816 17.4159 18.184 18.2101C17.3837 19.0084 17.1086 19.9999 17.0571 21.1276C17.025 21.8314 16.8377 27.1487 17.3809 28.5432C17.7473 29.484 18.4689 30.2072 19.4183 30.5748C19.8613 30.7471 20.367 30.8638 21.1088 30.8979C27.3113 31.1786 29.6106 31.0257 30.5801 28.5432C30.7522 28.1013 30.8706 27.5962 30.9033 26.8562C31.1868 20.6377 30.8573 19.2898 29.7763 18.2101C28.9189 17.3548 27.9103 16.7726 21.1088 17.0859M21.1659 29.6472C20.4868 29.6167 20.1183 29.5034 19.8724 29.4082C19.2539 29.1678 18.7893 28.7051 18.5504 28.0902C18.1367 27.0306 18.2739 21.9982 18.3108 21.1839C18.347 20.3862 18.5086 19.6574 19.0714 19.0946C19.7679 18.3998 20.6679 18.0593 26.7952 18.3359C27.5948 18.372 28.3255 18.5332 28.8897 19.0946C29.5862 19.7894 29.9317 20.6961 29.6503 26.7999C29.6196 27.4774 29.5061 27.8449 29.4107 28.0902C28.7803 29.7056 27.3301 29.93 21.1659 29.6472M26.8628 20.2827C26.8628 20.7427 27.2368 21.1165 27.6986 21.1165C28.1604 21.1165 28.5351 20.7427 28.5351 20.2827C28.5351 19.8227 28.1604 19.4489 27.6986 19.4489C27.2368 19.4489 26.8628 19.8227 26.8628 20.2827M20.4039 23.9915C20.4039 25.962 22.0052 27.5594 23.9805 27.5594C25.9559 27.5594 27.5572 25.962 27.5572 23.9915C27.5572 22.0211 25.9559 20.4244 23.9805 20.4244C22.0052 20.4244 20.4039 22.0211 20.4039 23.9915M21.659 23.9915C21.659 22.7131 22.6982 21.6758 23.9805 21.6758C25.2628 21.6758 26.3021 22.7131 26.3021 23.9915C26.3021 25.2707 25.2628 26.308 23.9805 26.308C22.6982 26.308 21.659 25.2707 21.659 23.9915" fill="#24ADB3"/>
</svg>
