<svg width="48" height="48" viewBox="0 0 48 48" fill="none" xmlns="http://www.w3.org/2000/svg">
<path d="M43 24C43 34.4934 34.4934 43 24 43C13.5066 43 5 34.4934 5 24C5 13.5066 13.5066 5 24 5C34.4934 5 43 13.5066 43 24Z" stroke="#24ADB3" stroke-width="2"/>
<path fill-rule="evenodd" clip-rule="evenodd" d="M30.3929 23.3023H24.6268C24.6268 23.902 24.6268 25.1013 24.6231 25.701H27.9644C27.8364 26.3006 27.3824 27.1402 26.741 27.5629C26.7404 27.5623 26.7398 27.5665 26.7385 27.5659C25.8857 28.129 24.7603 28.2567 23.9247 28.0888C22.6149 27.8286 21.5783 26.8787 21.1574 25.6722C21.1599 25.6704 21.1617 25.6536 21.1635 25.6524C20.9001 24.904 20.9001 23.902 21.1635 23.3023H21.1629C21.5023 22.2001 22.5702 21.1945 23.8818 20.9193C24.9368 20.6956 26.1271 20.9379 27.0026 21.757C27.119 21.6431 28.6138 20.1835 28.7259 20.0647C25.735 17.3561 20.9461 18.3089 19.1541 21.8068H19.1535C19.1535 21.8068 19.1541 21.8068 19.1504 21.8134V21.8134C18.2639 23.5314 18.3007 25.5559 19.1565 27.1917C19.1541 27.1935 19.1523 27.1947 19.1504 27.1965C19.926 28.7017 21.3375 29.856 23.0382 30.2956C24.8449 30.7693 27.1441 30.4455 28.6843 29.0525C28.6849 29.0531 28.6855 29.0537 28.6861 29.0543C29.991 27.8789 30.8034 25.8767 30.3929 23.3023" fill="#24ADB3"/>
</svg>
