<svg width="40" height="40" viewBox="0 0 40 40" fill="none" xmlns="http://www.w3.org/2000/svg">
<path d="M20 10C25.5228 10 30 14.4771 30 20C30 25.5228 25.5228 30 20 30C14.4771 30 10 25.5228 10 20C10 14.4771 14.4771 10 20 10ZM20 12C15.5817 12 12 15.5817 12 20C12 24.4183 15.5817 28 20 28C24.4183 28 28 24.4183 28 20C28 15.5817 24.4183 12 20 12ZM20 15C22.7614 15 25 17.2386 25 20C25 22.7614 22.7614 25 20 25C17.2386 25 15 22.7614 15 20C15 19.4872 15.0772 18.9925 15.2206 18.5268C15.6118 19.3954 16.4853 20 17.5 20C18.8807 20 20 18.8807 20 17.5C20 16.4853 19.3954 15.6118 18.5269 15.22C18.9925 15.0772 19.4872 15 20 15Z" fill="#24ADB2"/>
</svg>
