<svg width="40" height="40" viewBox="0 0 40 40" fill="none" xmlns="http://www.w3.org/2000/svg">
<path d="M12.8088 11.6759C14.7371 10.0086 17.2508 9 20 9C26.0751 9 31 13.9249 31 20C31 22.3497 30.2632 24.5274 29.0081 26.3147L25.5 20H28.8C28.8 15.1399 24.8601 11.2 20 11.2C17.6348 11.2 15.4875 12.1331 13.9063 13.6513L12.8088 11.6759ZM27.1911 28.3241C25.2628 29.9914 22.7492 31 20 31C13.9249 31 9 26.0751 9 20C9 17.6502 9.73677 15.4726 10.9919 13.6854L14.5 20H11.2C11.2 24.8601 15.1399 28.8 20 28.8C22.3652 28.8 24.5124 27.8669 26.0938 26.3488L27.1911 28.3241Z" fill="#24ADB3"/>
</svg>
