<svg width="40" height="40" viewBox="0 0 40 40" fill="none" xmlns="http://www.w3.org/2000/svg">
<path d="M20 16.4C18.0111 16.4 16.4 18.0117 16.4 20C16.4 21.9888 18.0117 23.6 20 23.6C21.9888 23.6 23.6 21.9883 23.6 20C23.6 18.0112 21.9883 16.4 20 16.4ZM20 14C23.3125 14 26 16.6845 26 20C26 23.3126 23.3155 26 20 26C16.6874 26 14 23.3155 14 20C14 16.6874 16.6845 14 20 14ZM27.8 13.699C27.8 14.5271 27.127 15.199 26.3 15.199C25.4719 15.199 24.8 14.5261 24.8 13.699C24.8 12.8719 25.4728 12.2 26.3 12.2C27.126 12.199 27.8 12.8719 27.8 13.699ZM20 10.4C17.0306 10.4 16.5466 10.4079 15.1655 10.4694C14.2246 10.5135 13.5939 10.6401 13.0078 10.8676C12.487 11.0696 12.1113 11.3108 11.711 11.7111C11.3092 12.1129 11.0685 12.4876 10.8673 13.0086C10.6393 13.596 10.5127 14.2257 10.4694 15.1654C10.4073 16.4902 10.4 16.9533 10.4 20C10.4 22.9694 10.4079 23.4534 10.4693 24.8343C10.5135 25.7749 10.6403 26.4066 10.8672 26.9912C11.0697 27.5127 11.3114 27.8893 11.7098 28.2877C12.1132 28.6905 12.489 28.9321 13.0051 29.1313C13.5982 29.3606 14.2286 29.4873 15.1654 29.5306C16.4902 29.5927 16.9533 29.6 20 29.6C22.9694 29.6 23.4534 29.5921 24.8343 29.5306C25.7728 29.4866 26.405 29.3595 26.9912 29.1327C27.5113 28.9308 27.889 28.6882 28.2877 28.2902C28.6911 27.8862 28.9322 27.5113 29.1316 26.994C29.3604 26.403 29.4873 25.7718 29.5306 24.8347C29.5927 23.5098 29.6 23.0467 29.6 20C29.6 17.0306 29.5921 16.5467 29.5306 15.1656C29.4865 14.2269 29.3594 13.5938 29.1324 13.0078C28.9309 12.4885 28.6888 12.1116 28.2889 11.7111C27.8864 11.3086 27.5127 11.0683 26.9913 10.8673C26.4044 10.6394 25.7737 10.5128 24.8346 10.4694C23.5098 10.4073 23.0467 10.4 20 10.4ZM20 8C23.2599 8 23.667 8.012 24.947 8.072C26.2239 8.131 27.095 8.333 27.86 8.63C28.6509 8.935 29.319 9.347 29.9859 10.014C30.6519 10.681 31.064 11.351 31.37 12.14C31.6659 12.904 31.868 13.776 31.928 15.053C31.985 16.333 32 16.74 32 20C32 23.26 31.988 23.667 31.928 24.947C31.869 26.224 31.6659 27.095 31.37 27.86C31.065 28.651 30.6519 29.319 29.9859 29.986C29.319 30.652 28.6479 31.064 27.86 31.37C27.095 31.666 26.2239 31.868 24.947 31.928C23.667 31.985 23.2599 32 20 32C16.74 32 16.333 31.988 15.053 31.928C13.776 31.869 12.906 31.666 12.14 31.37C11.35 31.065 10.681 30.652 10.014 29.986C9.347 29.319 8.936 28.648 8.63 27.86C8.333 27.095 8.132 26.224 8.072 24.947C8.015 23.667 8 23.26 8 20C8 16.74 8.012 16.333 8.072 15.053C8.13099 13.775 8.333 12.905 8.63 12.14C8.93499 11.35 9.347 10.681 10.014 10.014C10.681 9.347 11.351 8.936 12.14 8.63C12.905 8.333 13.775 8.132 15.053 8.072C16.333 8.015 16.74 8 20 8Z" fill="#24ADB3"/>
</svg>
