<svg width="170" height="170" viewBox="0 0 170 170" fill="none" xmlns="http://www.w3.org/2000/svg">
<g clip-path="url(#clip0_280_104)">
<circle cx="85" cy="85" r="85" fill="#F7FFFF"/>
<path d="M72.2059 70.1871L79.2082 77.1894C80.9353 78.9165 80.9353 81.7167 79.2082 83.4438L71.5539 91.098C69.8268 92.8251 69.8268 95.6253 71.5539 97.3524L78.5562 104.355C80.2833 106.082 80.2833 108.882 78.5562 110.609L72.6406 116.525C70.9134 118.252 68.1133 118.252 66.3861 116.525L46.1272 96.2658C44.4001 94.5387 44.4001 91.7385 46.1272 90.0114L65.9515 70.1871C67.6786 68.46 70.4788 68.46 72.2059 70.1871Z" fill="#5CE1E6"/>
<path d="M98.9645 70.1871L91.9622 77.1894C90.2351 78.9165 90.2351 81.7167 91.9622 83.4438L99.6165 91.098C101.344 92.8251 101.344 95.6253 99.6165 97.3524L92.6142 104.355C90.8871 106.082 90.8871 108.882 92.6142 110.609L98.5299 116.525C100.257 118.252 103.057 118.252 104.784 116.525L125.043 96.2658C126.77 94.5387 126.77 91.7385 125.043 90.0114L105.219 70.1871C103.492 68.46 100.692 68.46 98.9645 70.1871Z" fill="#5CE1E6"/>
<path d="M75.3247 68.1665L82.1097 74.9514C83.8368 76.6786 86.6369 76.6786 88.3641 74.9515L95.149 68.1665C96.8761 66.4394 96.8761 63.6392 95.149 61.9121L88.3641 55.1272C86.637 53.4001 83.8368 53.4001 82.1097 55.1272L75.3247 61.9121C73.5976 63.6392 73.5976 66.4394 75.3247 68.1665Z" fill="#24ADB3"/>
</g>
<defs>
<clipPath id="clip0_280_104">
<rect width="170" height="170" fill="white"/>
</clipPath>
</defs>
</svg>
