<svg width="56" height="56" viewBox="0 0 56 56" fill="none" xmlns="http://www.w3.org/2000/svg">
<path d="M20.2916 19.428L24.5175 23.654C25.2986 24.435 25.2986 25.7014 24.5175 26.4824L19.9446 31.0553C19.1636 31.8363 19.1636 33.1027 19.9446 33.8837L24.1706 38.1096C24.9516 38.8907 24.9516 40.157 24.1706 40.9381L20.5229 44.5858C19.7418 45.3668 18.4755 45.3668 17.6944 44.5858L6.41414 33.3055C5.63309 32.5244 5.63309 31.2581 6.41414 30.4771L17.4631 19.428C18.2442 18.647 19.5105 18.647 20.2916 19.428Z" fill="#24ADB3"/>
<path d="M35.0304 19.428L30.8045 23.654C30.0235 24.435 30.0235 25.7014 30.8045 26.4824L35.3774 31.0553C36.1584 31.8363 36.1584 33.1027 35.3774 33.8837L31.1514 38.1096C30.3704 38.8907 30.3704 40.157 31.1514 40.9381L34.7992 44.5858C35.5802 45.3668 36.8465 45.3668 37.6276 44.5858L48.9079 33.3055C49.6889 32.5244 49.6889 31.2581 48.9079 30.4771L37.8589 19.428C37.0778 18.647 35.8115 18.647 35.0304 19.428Z" fill="#24ADB3"/>
<path d="M21.9511 18.3529L26.0614 22.4632C26.8424 23.2443 28.1087 23.2443 28.8898 22.4632L33.0001 18.3529C33.7811 17.5719 33.7811 16.3056 33.0001 15.5245L28.8898 11.4142C28.1087 10.6332 26.8424 10.6332 26.0614 11.4142L21.9511 15.5245C21.17 16.3056 21.17 17.5719 21.9511 18.3529Z" fill="#072D2E"/>
</svg>
