<svg viewBox="0 0 56 56" fill="none" xmlns="http://www.w3.org/2000/svg">
<path d="M24.164 24.0075L19.938 19.7816C19.3522 19.1958 18.4025 19.1958 17.8167 19.7816L6.76769 30.8306C6.18191 31.4164 6.18191 32.3661 6.76769 32.9519L18.048 44.2322C18.6338 44.818 19.5835 44.818 20.1693 44.2322L23.817 40.5845C24.4028 39.9987 24.4028 39.049 23.817 38.4632L19.5911 34.2373C18.6148 33.2609 18.6148 31.678 19.5911 30.7017L24.164 26.1289C24.7497 25.5431 24.7497 24.5933 24.164 24.0075Z" fill="#24ADB3" stroke="#24ADB3"/>
<path d="M31.1581 24.0075L35.384 19.7816C35.9698 19.1958 36.9195 19.1958 37.5053 19.7816L48.5543 30.8306C49.1401 31.4164 49.1401 32.3661 48.5543 32.9519L37.274 44.2322C36.6882 44.818 35.7385 44.818 35.1527 44.2322L31.505 40.5845C30.9192 39.9987 30.9192 39.049 31.505 38.4632L35.7309 34.2373C36.7072 33.2609 36.7072 31.678 35.7309 30.7017L31.1581 26.1289C30.5723 25.5431 30.5723 24.5933 31.1581 24.0075Z" fill="#24ADB3" stroke="#24ADB3"/>
<path d="M26.4149 22.1097L22.3046 17.9994C21.7188 17.4136 21.7188 16.4638 22.3046 15.8781L26.4149 11.7678C27.0007 11.182 27.9505 11.182 28.5362 11.7678L32.6465 15.8781C33.2323 16.4638 33.2323 17.4136 32.6465 17.9994L28.5362 22.1097C27.9505 22.6955 27.0007 22.6955 26.4149 22.1097Z" fill="#CEF1F2" stroke="#CEF1F2"/>
</svg>
