<svg width="100" height="56" viewBox="0 0 100 56" fill="none" xmlns="http://www.w3.org/2000/svg">
<path fill-rule="evenodd" clip-rule="evenodd" d="M63.8865 19.0156C63.7805 31.616 63.7529 32.0633 63.0226 33.0259C62.6077 33.5725 61.6625 34.2468 60.9225 34.5242C59.7561 34.9612 59.3849 34.9612 58.1294 34.5245C57.3332 34.2471 56.3447 33.5729 55.9334 33.0262C55.2399 32.1049 55.1715 31.4419 55.0058 24.0385L54.8268 16.0451L50.9607 15.945L47.0949 15.8445L47.2016 18.0597L47.3086 20.2746L48.4722 20.3849L49.6357 20.4956V26.2445C49.6357 32.7305 49.9905 34.3063 51.8886 36.253C53.6955 38.1062 55.5435 38.8746 58.6313 39.0561C60.6229 39.1731 61.8666 39.0515 63.2284 38.6063C65.4577 37.8771 67.2911 36.3774 68.3626 34.4064C69.1248 33.0044 69.1499 32.5793 69.2526 19.4816L69.3579 6H66.6771H63.9964L63.8865 19.0156ZM20.2076 15.9108C17.6661 16.2604 14.9975 17.5666 13.2841 19.3C11.6219 20.9813 10.8089 22.5561 10.2661 25.1442C9.12267 30.5988 11.729 35.6732 16.8323 37.9282C18.574 38.6976 19.7118 38.926 22.4237 39.0508C24.296 39.1368 26.3922 39.0617 27.0813 38.8837C28.334 38.5602 28.3343 38.5591 28.4385 36.2903L28.5427 34.0205L24.8585 34.1305C21.4116 34.2334 21.0475 34.1766 19.2052 33.2493C17.6625 32.4728 17.0618 31.9177 16.4306 30.6855C15.4776 28.8249 15.3752 26.3041 16.1757 24.4174C17.2301 21.9333 18.6846 20.9524 21.8594 20.5851L23.8593 20.3539V21.6358V22.918H26.1863H28.5133V19.9651C28.5133 17.9156 28.3655 16.8917 28.0297 16.6175C27.7637 16.4 26.757 16.135 25.7921 16.0282C24.8277 15.9217 23.6355 15.7885 23.1433 15.7325C22.651 15.6761 21.33 15.7564 20.2076 15.9108ZM31.1819 16.3126C31.0867 16.5569 31.0516 21.751 31.1035 27.8556L31.1984 38.9549H38.3585H45.5186L45.6253 36.752L45.7316 34.5492H41.0607H36.3895V32.082V29.6148H41.7596H47.1296V27.1475V24.6803H41.7596H36.3895V22.5769V20.473L40.596 20.374L44.8026 20.2746L44.9093 18.0717L45.0156 15.8689H38.1852C33.0246 15.8689 31.3126 15.9774 31.1819 16.3126ZM72.0708 16.1039C71.9394 16.2329 71.832 19.2324 71.832 22.7689V29.1992L77.3443 29.3187C82.1584 29.4234 82.9517 29.5235 83.6094 30.11C84.606 30.9989 84.6064 32.8119 83.6101 33.7015C82.9617 34.2803 82.1104 34.3973 77.4345 34.5492L72.011 34.7254L71.914 41.8627L71.8174 49H74.5096H77.2021V44.1117V39.2235L80.9003 39.0617C83.7887 38.9352 84.9694 38.7226 86.294 38.0917C87.2947 37.6145 88.34 36.7594 88.8452 36.0045C89.9307 34.3821 90.2955 32.1761 89.7484 30.5435C89.3611 29.3885 87.9147 27.8398 86.792 27.378C86.4616 27.242 86.5278 27.0672 87.0276 26.7595C89.1516 25.4512 90.0374 23.4005 89.5612 20.8914C89.2164 19.0734 86.7981 16.8177 84.6132 16.2759C82.8783 15.8459 72.4779 15.7032 72.0708 16.1039ZM83.4565 21.1441C83.807 21.5255 84.0937 22.2533 84.0937 22.7615C84.0937 24.3532 83.2098 24.8389 80.0554 24.9799L77.2021 25.1075V22.7792V20.4508H80.0107C82.3488 20.4508 82.9259 20.5668 83.4565 21.1441Z" fill="#24ADB3"/>
</svg>
