<svg width="200" height="56" viewBox="0 0 200 56" fill="none" xmlns="http://www.w3.org/2000/svg">
<path fill-rule="evenodd" clip-rule="evenodd" d="M83.369 17.6398C81.2277 18.8127 81.0339 19.8082 81.0163 29.7188L81.0001 39H87.5133C94.6733 39 96.4349 38.5343 97.2452 36.4274C97.489 35.793 97.6888 31.162 97.6888 26.1369V17L91.0829 17.016C86.4935 17.0275 84.1385 17.2177 83.369 17.6398ZM29.7517 21.2895C27.8413 22.142 25.9369 24.4727 25.5693 26.4091C25.0677 29.0551 25.7482 31.2308 27.6725 33.1338C29.2088 34.6522 29.7104 34.875 31.5976 34.875C35.9293 34.875 38.3478 32.4119 38.3478 28C38.3478 24.0405 36.2227 21.3487 32.7213 20.8711C31.8656 20.7542 30.5296 20.9426 29.7517 21.2895ZM48.4793 21.5916C46.0877 22.8405 44.8411 25.0364 44.8411 28C44.8411 32.1621 47.35 34.8768 51.1921 34.8732C53.5452 34.8709 55.7212 33.4817 56.8756 31.2445C58.054 28.9602 58.0609 26.9628 56.8997 24.4323C56.2117 22.9336 55.5284 22.258 54.0125 21.5778C52.9203 21.0879 51.6093 20.6914 51.0994 20.6969C50.5894 20.7024 49.4106 21.1053 48.4793 21.5916ZM144.278 20.9889C142.666 21.4119 140.942 22.8864 140.163 24.508C138.574 27.8199 139.735 32.439 142.567 34.0729C143.335 34.5157 144.896 34.875 146.053 34.875C147.636 34.875 148.5 34.5821 149.59 33.6746C150.384 33.0142 151.339 31.8903 151.712 31.1767C153.181 28.3685 152.155 23.8337 149.653 22.0719C148.304 21.1227 145.738 20.6057 144.278 20.9889ZM162.798 21.3115C160.893 22.132 158.985 24.464 158.613 26.4275C158.154 28.8447 159.208 31.9114 161.045 33.5064C162.298 34.5936 163.053 34.875 164.715 34.875C167.349 34.875 169.194 33.945 170.376 32.0214C171.689 29.8837 172.022 27.818 171.377 25.8243C170.681 23.6775 169.29 22.11 167.356 21.295C165.524 20.5237 164.62 20.5269 162.798 21.3115ZM11 28V34.875H15.6358H20.2715V33.7292C20.2715 32.609 20.1941 32.5833 16.7947 32.5833H13.3179V26.8542V21.125H12.1589H11V28ZM64.3113 28V34.875H65.4703C66.5161 34.875 66.6348 34.6848 66.6839 32.9271C66.7145 31.856 66.7057 30.7986 66.6649 30.5781C66.5777 30.1079 68.0079 28.4583 68.5025 28.4583C68.6889 28.4583 69.7087 29.9021 70.7694 31.6667C72.4628 34.4854 72.8634 34.875 74.0673 34.875C74.8206 34.875 75.4372 34.743 75.4372 34.5817C75.4372 34.4208 74.2815 32.554 72.8694 30.4342L70.3017 26.5792L72.6251 23.9667L74.9485 21.3542L73.6209 21.2144C72.5264 21.0989 71.8662 21.5205 69.8659 23.6115C68.5308 25.0071 67.2569 26.0374 67.0339 25.9017C66.8114 25.7656 66.6292 24.6354 66.6292 23.3896C66.6292 21.2795 66.5499 21.125 65.4703 21.125H64.3113V28ZM91.0954 27.8854L90.967 34.6458H89.5762H88.1855L88.0571 27.8854L87.9292 21.125H89.5762H91.2233L91.0954 27.8854ZM102.788 28V34.875H103.931C105.065 34.875 105.076 34.8365 105.206 30.0804L105.338 25.2853L108.342 30.0804C110.727 33.8868 111.563 34.875 112.398 34.875C113.445 34.875 113.45 34.8429 113.45 27.9679C113.45 21.0677 113.45 21.0613 112.407 21.2075C111.407 21.3482 111.364 21.5375 111.364 25.8234C111.364 28.2814 111.26 30.2926 111.132 30.2921C111.004 30.2921 109.575 28.2292 107.957 25.7083C105.565 21.9844 104.805 21.125 103.901 21.125H102.788V28ZM120.868 28V34.875H123.896C127.111 34.875 129.711 34.0578 131.357 32.5288C131.906 32.0191 132.604 30.7225 132.908 29.6482C133.678 26.9293 132.925 24.376 130.812 22.5417C129.247 21.1837 129.008 21.125 125.024 21.125H120.868V28ZM178.351 28V34.875H179.51C180.627 34.875 180.669 34.7682 180.669 31.8958C180.669 28.9272 180.674 28.9167 181.988 28.9167C182.713 28.9167 183.653 29.2948 184.076 29.7568C184.499 30.2188 185.176 31.5594 185.582 32.736C186.232 34.6211 186.478 34.875 187.659 34.875H189L188.048 32.4688C187.524 31.1455 186.799 29.6087 186.436 29.0542C185.85 28.1567 185.871 27.9803 186.626 27.45C187.912 26.548 188.606 24.9457 188.276 23.6445C187.779 21.686 186.424 21.125 182.188 21.125H178.351V28ZM34.4134 23.9905C35.9024 25.2564 36.4341 28.2283 35.5496 30.3393C34.8042 32.1186 32.4455 33.2388 30.7711 32.6095C29.0373 31.9577 28.1523 30.3531 28.1523 27.863C28.1523 26.0145 28.3818 25.4109 29.5074 24.298C30.2885 23.5258 31.3575 22.9583 32.0311 22.9583C32.6741 22.9583 33.7459 23.4226 34.4134 23.9905ZM53.8396 24.3686C56.1436 27.0755 55.0741 32.1195 52.0761 32.686C50.3326 33.0155 48.3165 31.9481 47.642 30.338C46.758 28.2283 47.2902 25.256 48.7787 23.9905C50.5199 22.5096 52.3756 22.648 53.8396 24.3686ZM148.102 23.6623C148.661 24.0496 149.364 25.1771 149.665 26.168C150.121 27.6737 150.081 28.3052 149.422 30.0107C148.836 31.5282 148.28 32.174 147.254 32.5274C146.496 32.7891 145.516 32.878 145.077 32.725C143.598 32.2098 142.208 30.6139 141.921 29.1023C141.559 27.1929 142.435 24.5378 143.722 23.6472C145 22.7622 146.811 22.7686 148.102 23.6623ZM167.46 23.9905C168.28 24.6872 168.759 25.6515 168.936 26.961C169.294 29.6005 168.382 31.619 166.472 32.4073C163.607 33.5912 161.199 31.647 161.199 28.149C161.199 25.7665 161.915 24.1202 163.222 23.4946C164.818 22.7301 166.163 22.8873 167.46 23.9905ZM185.421 23.7256C185.958 24.04 185.832 25.4622 185.212 26.075C184.906 26.3775 183.759 26.625 182.662 26.625C180.712 26.625 180.669 26.592 180.669 25.0974C180.669 24.2568 180.819 23.4212 181.002 23.2407C181.319 22.9272 184.688 23.297 185.421 23.7256ZM129.175 24.2188C130.434 25.2363 130.905 28.0046 130.133 29.8475C129.409 31.5755 127.542 32.5833 125.063 32.5833H123.186V28V23.4167H125.684C127.376 23.4167 128.502 23.6756 129.175 24.2188Z" fill="#24ADB3"/>
</svg>
