<svg width="128" height="56" viewBox="0 0 128 56" fill="none" xmlns="http://www.w3.org/2000/svg">
<path fill-rule="evenodd" clip-rule="evenodd" d="M34.1692 8.16287C31.9358 8.57318 30.3498 9.46994 29.4186 10.8488C28.2769 12.5395 27.7097 15.0332 27.8435 17.775C27.9773 20.519 28.6295 22.4177 29.9048 23.7747C31.2416 25.1973 33.0099 25.837 35.6174 25.841C37.3191 25.8439 38.3985 25.6461 39.6258 25.1072L40.5179 24.7154L40.604 23.4385C40.6514 22.7362 40.7284 21.5449 40.7751 20.7909L40.8602 19.42L40.3478 19.4211C39.849 19.4221 39.8213 19.4586 39.3079 20.792C38.3324 23.3254 37.4702 24.2767 36.1495 24.2767C34.4508 24.2767 33.4134 22.8449 32.9814 19.9046C32.7382 18.2494 32.8699 13.8687 33.1972 12.7234C33.5337 11.5459 34.0557 10.54 34.5183 10.1778C35.1011 9.72139 35.9712 9.52462 36.6056 9.70572C37.6369 10.0001 38.365 10.9821 39.046 12.9967C39.3646 13.939 39.4275 14.0186 39.8882 14.064L40.3862 14.1132V11.616V9.11854L39.6386 8.79941C38.6679 8.38518 36.6681 7.97863 35.7104 8.00087C35.2955 8.01043 34.602 8.08344 34.1692 8.16287ZM44.6214 12.9198C44.224 13.0454 43.5589 13.4462 43.1434 13.8102C41.7486 15.0324 41.0444 17.2593 41.221 19.8896C41.3324 21.5491 41.7981 23.0379 42.5029 23.9884C42.896 24.5184 43.333 24.86 44.098 25.2347C45.0404 25.6966 45.2943 25.7513 46.5068 25.7533C48.19 25.756 49.2352 25.4229 50.2019 24.5759C51.5591 23.3868 52.1226 21.5106 51.9967 18.6003C51.94 17.2911 51.8297 16.601 51.57 15.9292C51.0585 14.6058 50.3592 13.7811 49.284 13.2332C48.4694 12.8181 48.178 12.7574 46.8512 12.7264C45.873 12.7036 45.0905 12.7714 44.6214 12.9198ZM92.7833 12.9198C92.3859 13.0454 91.7208 13.4462 91.3053 13.8102C89.9105 15.0324 89.2063 17.2593 89.3829 19.8896C89.4943 21.5491 89.9601 23.0379 90.6649 23.9884C91.0541 24.5133 91.4852 24.8523 92.1986 25.1948C92.7445 25.4566 93.582 25.7159 94.0595 25.7707C95.0792 25.8877 96.7142 25.6256 97.5216 25.2156C97.8352 25.0563 98.3575 24.6333 98.6822 24.2755C99.838 23.0022 100.276 21.3177 100.159 18.6003C100.102 17.2911 99.9916 16.601 99.7319 15.9292C99.2204 14.6058 98.5211 13.7811 97.4459 13.2332C96.6313 12.8181 96.3399 12.7574 95.0131 12.7264C94.0349 12.7036 93.2524 12.7714 92.7833 12.9198ZM52.6628 13.2936C52.6628 13.6107 52.741 13.78 52.8877 13.78C53.0112 13.78 53.2237 13.8908 53.3598 14.0261C53.5742 14.2397 53.6071 14.9332 53.6071 19.2432C53.6071 24.4067 53.5844 24.59 52.9461 24.59C52.7362 24.59 52.6628 24.7119 52.6628 25.06V25.53H55.3384H58.0141V25.0704C58.0141 24.6856 57.9437 24.6027 57.5812 24.5612L57.1484 24.5117L57.1048 22.2009L57.0614 19.89H57.4398C57.6478 19.89 57.9055 19.9947 58.0122 20.1227C58.1189 20.2507 58.3111 21.0791 58.4393 21.9635C58.5676 22.8481 58.801 23.8655 58.9581 24.2244C59.1152 24.5833 59.4419 25.0063 59.684 25.1644C60.0836 25.4252 60.5174 25.4517 64.3812 25.4517H68.638V25.0671C68.638 24.786 68.5321 24.6576 68.2449 24.59C67.7403 24.4716 67.6575 24.0839 67.6335 21.7309L67.615 19.89H67.9973C68.2074 19.89 68.485 19.995 68.6139 20.1235C68.8746 20.3829 68.9412 20.6527 69.1982 22.4902C69.2975 23.201 69.5259 24.0278 69.7174 24.3702C69.9102 24.7152 70.2984 25.1011 70.6078 25.2556C71.1001 25.5015 71.7473 25.5296 76.9236 25.5297C81.8015 25.53 82.7043 25.4953 82.7779 25.3041C82.826 25.1799 82.8779 24.2458 82.8935 23.2283C82.9207 21.4503 82.9087 21.3765 82.5864 21.3282C82.3727 21.2963 82.2153 21.3815 82.1523 21.5632C81.7955 22.5947 81.1996 23.7121 80.868 23.9718C80.5948 24.1858 80.2328 24.2767 79.6536 24.2767C79.1737 24.2767 78.7582 24.1926 78.6606 24.0756C78.5657 23.9618 78.472 22.9414 78.4446 21.7252L78.3963 19.5762L79.1046 19.5789C79.4941 19.5803 79.906 19.6403 80.02 19.7122C80.1339 19.7841 80.3217 20.118 80.4372 20.454C80.5792 20.867 80.7544 21.0813 80.9777 21.1152C81.3005 21.164 81.3081 21.1128 81.3081 18.8717C81.3081 16.6008 81.3046 16.5787 80.9632 16.6282C80.718 16.6639 80.5782 16.8367 80.4796 17.2267C80.4031 17.5283 80.2556 17.8623 80.1517 17.969C80.0478 18.0757 79.6281 18.2087 79.2188 18.2645L78.475 18.366V16.2297V14.0933H79.3564C80.1473 14.0933 80.2923 14.1476 80.7681 14.6212C81.085 14.9367 81.3767 15.4407 81.4932 15.8745C81.6532 16.47 81.7529 16.6 82.0489 16.6C82.4051 16.6 82.4098 16.5757 82.4098 14.7175V12.8348L78.1996 12.8767L73.9893 12.9183L73.9431 13.3122C73.9062 13.6269 73.9936 13.7424 74.3781 13.887L74.8593 14.0678L74.8179 19.2897L74.7763 24.5117L74.1894 24.5601C73.6774 24.6024 73.5645 24.5465 73.3047 24.121C73.1408 23.8528 72.9191 23.0907 72.8117 22.4276C72.7046 21.7644 72.4899 20.9749 72.3347 20.6734C72.0429 20.1061 71.5447 19.59 70.9989 19.2895C70.8207 19.1915 70.7763 19.1142 70.8964 19.1114C71.4357 19.0993 72.2558 18.5277 72.6728 17.8731C73.0469 17.2861 73.1237 16.9961 73.1237 16.1726C73.1237 15.6266 73.0271 14.9498 72.909 14.6685C72.791 14.3873 72.474 13.9726 72.2047 13.747C71.3142 13.0011 70.8085 12.9221 66.9067 12.9202L63.2867 12.9183L63.239 13.3279C63.1986 13.6746 63.2653 13.7523 63.6739 13.8336L64.1566 13.9296L64.1151 19.2186C64.076 24.2001 64.057 24.5108 63.7858 24.5626C63.6275 24.593 63.3218 24.5738 63.1065 24.52C62.6313 24.4013 62.3697 23.8196 62.1166 22.3184C61.8621 20.8079 61.4295 19.9732 60.6669 19.5206L60.0419 19.1495L60.5183 19.0547C61.1942 18.9201 62.2089 17.8541 62.4264 17.0503C62.6231 16.3232 62.5125 15.1914 62.1837 14.5654C61.8859 13.9984 61.169 13.3841 60.5323 13.1505C60.1659 13.0159 58.7559 12.9246 56.3221 12.8776L52.6628 12.807V13.2936ZM83.3054 12.9407C83.2456 13.0003 83.1968 13.198 83.1968 13.38C83.1968 13.6045 83.3496 13.7687 83.6712 13.8895L84.1454 14.0678L84.104 19.2897L84.0624 24.5117L83.6296 24.5612C83.2671 24.6027 83.1968 24.6856 83.1968 25.0704V25.53H85.9511H88.7055V25.0704C88.7055 24.6856 88.6351 24.6027 88.2727 24.5612L87.8398 24.5117L87.7984 19.2207L87.7569 13.9296L88.2396 13.8336C88.6482 13.7523 88.7149 13.6746 88.6745 13.3279L88.6268 12.9183L86.0204 12.8756C84.5869 12.8519 83.365 12.8814 83.3054 12.9407ZM47.3961 14.193C47.6076 14.42 47.8541 14.8607 47.944 15.1722C48.4868 17.0528 48.5238 21.2958 48.0123 23.003C47.565 24.4959 46.5961 25.0212 45.8225 24.1902C45.1959 23.5173 45.0292 22.4489 45.0292 19.1067C45.0292 16.5525 45.0763 15.9171 45.3166 15.2312C45.6151 14.3794 46.1908 13.78 46.7107 13.78C46.8762 13.78 47.1847 13.9658 47.3961 14.193ZM95.5306 14.1635C96.0229 14.6923 96.2367 15.4556 96.4444 17.4263C96.5749 18.663 96.5765 19.6112 96.4507 20.9732C96.2136 23.5408 95.7382 24.59 94.8118 24.59C94.1075 24.59 93.6411 23.9631 93.3385 22.6096C93.1301 21.6771 93.0926 20.8844 93.1518 18.6687C93.2078 16.5724 93.2925 15.7133 93.4989 15.1505C93.7877 14.363 94.3719 13.78 94.8726 13.78C95.0381 13.78 95.3342 13.9525 95.5306 14.1635ZM58.4982 14.4977C58.846 14.8663 58.8797 15.0316 58.8797 16.3741C58.8797 17.7355 58.8501 17.8756 58.4862 18.2377C58.2698 18.4529 57.8627 18.6749 57.5812 18.7308L57.0697 18.8325V16.5674C57.0697 15.3216 57.1169 14.2552 57.1747 14.1978C57.4202 13.9534 58.1379 14.1161 58.4982 14.4977ZM68.8977 14.2625C69.3694 14.5138 69.6611 15.3664 69.6611 16.4935C69.6611 17.2721 69.5827 17.609 69.3069 18.0139C68.9421 18.5497 68.2526 18.89 67.8459 18.7348C67.6616 18.6643 67.615 18.2856 67.615 16.8595C67.615 15.8767 67.6592 14.8522 67.7133 14.5829C67.7913 14.195 67.8915 14.0933 68.1959 14.0933C68.4071 14.0933 68.723 14.1695 68.8977 14.2625ZM13 30.7588C13 31.2268 13.0571 31.299 13.4966 31.3864C13.7696 31.4408 14.0884 31.5639 14.2048 31.6601C14.3765 31.8021 14.4165 33.1776 14.4165 38.9331C14.4165 46.7411 14.4439 46.5234 13.461 46.5234C13.0282 46.5234 13 46.5617 13 47.1501V47.7768H17.7715C20.5413 47.7768 22.9322 47.7052 23.4707 47.6062C24.5345 47.4103 25.6704 46.8788 26.1739 46.3412C26.3645 46.1377 26.6814 45.6196 26.8782 45.1899C27.1678 44.5576 27.235 44.1393 27.2306 42.9984C27.2265 41.9213 27.1489 41.4194 26.9018 40.8725C26.4822 39.9434 25.6246 39.1255 24.6001 38.6772L23.7813 38.3189L24.7202 37.8367C25.4387 37.4676 25.7711 37.174 26.1367 36.5854C26.5414 35.934 26.6231 35.6271 26.6709 34.5788C26.7431 32.9957 26.4476 32.1787 25.5027 31.3509C24.324 30.3181 23.734 30.2301 17.9868 30.2301H13V30.7588ZM21.083 32.1204C21.6701 32.5799 22.0373 33.929 21.9189 35.1908C21.7653 36.8281 21.1978 37.5774 20.0104 37.7106L19.2957 37.7908V34.8983C19.2957 33.3073 19.3429 31.9586 19.4007 31.9012C19.6319 31.6709 20.6842 31.808 21.083 32.1204ZM99.5868 35.3337C98.9858 35.6366 98.6103 35.9667 98.2844 36.4781C98.0325 36.8735 97.7495 37.48 97.6556 37.8261C97.4429 38.6091 97.5649 39.8964 97.9176 40.5916C98.3502 41.4441 98.9265 41.9582 100.463 42.8612C101.259 43.3295 102.054 43.8939 102.229 44.1156C102.659 44.6588 102.795 45.4794 102.552 46.0621C102.324 46.6101 101.971 46.8371 101.347 46.8362C100.369 46.8349 99.3006 45.7616 98.6227 44.0987C98.3294 43.3796 98.2046 43.2334 97.8833 43.2334H97.4968L97.6044 45.0743C97.727 47.1669 97.7725 47.244 99.172 47.7296C100.122 48.0591 102.028 48.0936 103.028 47.7993C104.002 47.5126 105.1 46.3716 105.395 45.3398C105.882 43.6284 105.445 41.6906 104.355 40.7382C104.068 40.4871 103.262 39.986 102.563 39.6245C101.865 39.2629 101.118 38.7584 100.902 38.5032C100.366 37.8696 100.364 36.9412 100.896 36.4114C101.109 36.1999 101.399 36.0267 101.541 36.0267C102.032 36.0267 102.793 36.4996 103.155 37.0293C103.355 37.3213 103.648 37.9027 103.807 38.321C104.039 38.9317 104.177 39.0915 104.507 39.1313L104.917 39.1809V37.4383V35.6959L104.169 35.3609C103.624 35.1165 103.018 35.01 101.926 34.9669C100.549 34.9125 100.365 34.9414 99.5868 35.3337ZM27.2702 35.1912C27.2125 35.2486 27.1653 35.4447 27.1653 35.6268C27.1653 35.851 27.3179 36.0155 27.6374 36.1355L28.1096 36.3128V41.3868C28.1096 46.6583 28.0879 46.8368 27.4486 46.8368C27.2388 46.8368 27.1653 46.9587 27.1653 47.3068V47.7768H29.8409H32.5166V47.3068C32.5166 46.9587 32.4431 46.8368 32.2333 46.8368C31.6519 46.8368 31.5722 46.531 31.5722 44.2988V42.1368H31.9621C32.1933 42.1368 32.4456 42.2803 32.5819 42.4893C32.7085 42.6832 32.8946 43.4763 32.9957 44.2518C33.0966 45.0273 33.3207 45.9933 33.4937 46.3984C34.0255 47.6447 34.1739 47.6911 37.8286 47.7492L41.0158 47.7998V47.3184C41.0158 46.898 40.9607 46.8365 40.5829 46.8344C39.7461 46.8297 39.6848 46.6828 39.9861 45.4045C40.1355 44.7705 40.2924 44.1255 40.3347 43.971C40.4011 43.7285 40.5658 43.6965 41.54 43.736L42.6684 43.7818L43.0027 45.1128C43.1865 45.8449 43.303 46.5322 43.2613 46.6403C43.2197 46.7484 42.9806 46.8368 42.7302 46.8368C42.3292 46.8368 42.2749 46.8929 42.2749 47.3068V47.7768H49.262C55.4881 47.7768 56.2595 47.7498 56.3446 47.5289C56.3972 47.3926 56.4402 46.4409 56.4402 45.4139C56.4402 43.5808 56.4337 43.5468 56.086 43.551C55.7996 43.5544 55.6187 43.793 55.1403 44.7996C54.8111 45.4918 54.392 46.1319 54.1959 46.2421C53.8816 46.4185 51.2456 46.6883 51.2461 46.5438C51.2464 46.426 53.6935 41.3426 55.0534 38.6349C55.8384 37.0717 56.4365 35.6898 56.4096 35.5016C56.3618 35.1668 56.3393 35.1651 52.1119 35.1651H47.8623L47.8182 37.1626L47.7742 39.1601H48.1774C48.399 39.1601 48.6112 39.072 48.6488 38.9643C49.2421 37.2643 49.4246 36.9215 49.8848 36.6421C50.2432 36.4247 50.6728 36.341 51.4349 36.3407L52.4891 36.3401L49.9037 41.5101C48.4816 44.3536 47.2508 46.6801 47.1685 46.6801C46.9836 46.6801 46.8429 46.1932 45.3349 40.3351C44.6694 37.7501 44.0589 35.509 43.978 35.3546C43.852 35.1143 43.6497 35.0808 42.5572 35.1196L41.2833 35.1651L41.0079 36.1834C40.8563 36.7435 40.1827 39.235 39.5106 41.72C38.8387 44.2051 38.1759 46.3773 38.0377 46.5471C37.7283 46.9275 37.3484 46.8098 37.0945 46.2554C36.9919 46.0314 36.8104 45.2914 36.6911 44.6113C36.5718 43.9311 36.3398 43.1137 36.1755 42.7949C36.0113 42.476 35.6171 42.045 35.2994 41.8371L34.7221 41.459L35.3179 41.1935C36.034 40.8743 36.6708 40.1577 36.9283 39.3808C37.1658 38.6646 37.0633 37.5403 36.6894 36.757C36.5315 36.4261 36.1476 35.989 35.8366 35.7856C35.5212 35.5793 34.8184 35.3435 34.2479 35.2523C33.1263 35.0734 27.4387 35.0235 27.2702 35.1912ZM56.7287 35.1651C56.5695 35.3235 56.7894 36.0267 56.9981 36.0267C57.1117 36.0267 57.3159 36.1375 57.452 36.2729C57.6662 36.4863 57.6993 37.1729 57.6993 41.413C57.6993 46.5488 57.6738 46.7467 56.9954 46.864C56.7841 46.9005 56.6849 47.0422 56.6849 47.308L56.6847 47.6985L59.3955 47.7414L62.1063 47.7841V47.3301C62.1063 46.9508 62.0284 46.8604 61.6341 46.7819L61.1619 46.6879V41.5004V36.3128L61.641 36.1328C62.0233 35.9891 62.1107 35.8734 62.0738 35.5589L62.0276 35.1651L59.4212 35.1223C57.9876 35.0987 56.776 35.1179 56.7287 35.1651ZM62.8443 35.1876C62.7846 35.247 62.7358 35.4513 62.7358 35.6417C62.7358 35.9011 62.8545 36.0112 63.21 36.0821L63.6844 36.1764L63.6429 41.4604L63.6015 46.7443L63.208 46.836C62.9266 46.9015 62.8004 47.0484 62.7648 47.3522L62.7149 47.7768H66.9522H71.1895L71.2898 46.7193C71.345 46.1376 71.3907 45.2212 71.3913 44.6826C71.3924 43.7509 71.374 43.7034 71.0113 43.7034C70.7091 43.7034 70.6076 43.8087 70.5198 44.2126C70.3547 44.9731 69.7032 46.1766 69.3568 46.3611C68.9405 46.583 67.7207 46.5661 67.4891 46.3354C67.3502 46.1973 67.3002 44.8471 67.3002 41.2358V36.3241L67.8254 36.1057C68.2224 35.9406 68.3442 35.7991 68.324 35.5262C68.2974 35.1662 68.2891 35.1649 65.6251 35.1223C64.1553 35.0988 62.9041 35.1283 62.8443 35.1876ZM71.3924 35.5187C71.3924 35.863 71.4945 35.9965 71.8646 36.1355L72.3367 36.3128V41.5004V46.6879L71.8646 46.7819C71.4712 46.8603 71.3924 46.9513 71.3924 47.3264V47.7768H74.1571H76.922L76.8721 47.346C76.8361 47.034 76.7223 46.901 76.4598 46.8639C76.2467 46.8338 76.0358 46.6521 75.9482 46.4229C75.7858 45.9975 75.743 37.1135 75.9007 36.5279C75.9648 36.2898 76.1538 36.1364 76.4577 36.0758C76.843 35.9992 76.9101 35.9175 76.8701 35.5746L76.8224 35.1651L74.1074 35.1222L71.3924 35.0794V35.5187ZM77.5307 35.5224C77.5307 35.8626 77.6341 35.997 78.0028 36.1355L78.475 36.3128V41.3868C78.475 46.6583 78.4533 46.8368 77.814 46.8368C77.6042 46.8368 77.5307 46.9587 77.5307 47.3068V47.7768H81.9143H86.298L86.3991 46.4843C86.4546 45.7735 86.5006 44.8216 86.5011 44.3693C86.5018 43.6195 86.4705 43.5468 86.1465 43.5468C85.8513 43.5468 85.7284 43.7204 85.4229 44.5684C85.2204 45.1302 84.8437 45.8 84.5859 46.0567C84.1717 46.4689 84.0086 46.5234 83.1902 46.5234C82.4352 46.5234 82.2334 46.4674 82.1005 46.2205C82.011 46.0538 81.9376 44.9963 81.9376 43.8704V41.8234H82.7002C83.5693 41.8234 83.9203 42.0949 84.0802 42.8913C84.1591 43.2839 84.2601 43.3901 84.5543 43.3901H84.9281V41.1184C84.9281 38.8546 84.9268 38.8468 84.5672 38.8468C84.274 38.8468 84.1718 38.9754 84.0215 39.5347C83.8767 40.0739 83.7421 40.2521 83.3987 40.3595C83.1577 40.4349 82.7284 40.4731 82.4446 40.4446L81.9284 40.3929L81.9724 38.4056L82.0163 36.4184L82.9254 36.3713C83.7478 36.3286 83.8776 36.3672 84.2859 36.7734C84.5341 37.0205 84.8676 37.5881 85.0271 38.0347C85.2605 38.6891 85.3859 38.8468 85.6733 38.8468C86.024 38.8468 86.0298 38.8157 86.0298 36.9667V35.0867H81.7802H77.5307V35.5224ZM86.7644 35.1912C86.7066 35.2486 86.6594 35.4447 86.6594 35.6268C86.6594 35.851 86.8121 36.0155 87.1316 36.1355L87.6037 36.3128V41.173C87.6037 43.9516 87.5379 46.2051 87.4503 46.4349C87.3552 46.6837 87.1753 46.8368 86.9781 46.8368C86.7282 46.8368 86.6594 46.9392 86.6594 47.3118V47.7867L88.5087 47.7426L90.3581 47.6985V47.3068C90.3581 46.9795 90.2741 46.9071 89.8467 46.8661C89.5194 46.8346 89.2656 46.6937 89.1415 46.4744C89.0097 46.2419 88.9293 45.0489 88.8912 42.7634C88.8604 40.9108 88.8607 39.1483 88.8917 38.8468C88.9424 38.3569 89.2013 38.7993 91.3205 42.9984L93.6928 47.6985L94.8979 47.7442L96.1029 47.7899L96.1038 43.3575C96.1043 40.9196 96.1511 38.333 96.2077 37.6096C96.3069 36.3413 96.3269 36.2879 96.7644 36.1234C97.1222 35.989 97.2086 35.8693 97.1722 35.5589L97.1259 35.1651H95.3159H93.5059L93.4562 35.5959C93.4132 35.9669 93.4625 36.0267 93.8103 36.0267C94.0324 36.0267 94.3559 36.1677 94.529 36.3401C94.8197 36.6294 94.8438 36.8623 94.8438 39.3822C94.8438 40.8831 94.8867 42.2226 94.9393 42.3589C94.9919 42.4952 94.9741 42.6035 94.9 42.5996C94.8258 42.5955 93.9216 40.9035 92.8905 38.8395L91.0162 35.0867H88.9427C87.8022 35.0867 86.822 35.1337 86.7644 35.1912ZM105.969 35.1887C105.91 35.2475 105.861 35.4513 105.861 35.6417C105.861 35.9011 105.98 36.0112 106.335 36.0821L106.81 36.1764L106.768 41.4604L106.727 46.7443L106.333 46.836C106.052 46.9015 105.926 47.0484 105.89 47.3522L105.84 47.7768H110.263C113.663 47.7768 114.699 47.7315 114.746 47.581C114.779 47.4733 114.85 46.5166 114.903 45.455L115 43.525L114.583 43.575C114.226 43.6179 114.113 43.7721 113.798 44.6434C113.574 45.2624 113.241 45.8307 112.948 46.0926C112.551 46.4478 112.321 46.5234 111.635 46.5234C111.178 46.5234 110.718 46.4388 110.614 46.3354C110.486 46.2075 110.426 45.4581 110.426 43.9854V41.8234H111.193C111.616 41.8234 112.034 41.9115 112.123 42.0193C112.213 42.1271 112.35 42.4618 112.427 42.7634C112.54 43.2001 112.656 43.322 112.997 43.3617L113.425 43.4117L113.381 41.1684C113.339 38.9936 113.327 38.9235 112.992 38.8762C112.708 38.8359 112.617 38.937 112.479 39.4454C112.387 39.7853 112.224 40.1347 112.116 40.2217C112.009 40.3086 111.584 40.4054 111.173 40.4369L110.426 40.494V38.417V36.3401H111.22C112.555 36.3401 112.937 36.6774 113.567 38.4159C113.682 38.733 113.829 38.8468 114.125 38.8468H114.528L114.483 37.0059L114.439 35.1651L110.258 35.1234C107.958 35.1005 106.028 35.1298 105.969 35.1887ZM32.9804 36.6451C33.6486 37.3102 33.783 39.1823 33.2381 40.2314C33.1007 40.4957 32.7846 40.767 32.4979 40.8665C31.5513 41.1949 31.5722 41.2419 31.5722 38.7946C31.5722 37.5594 31.6195 36.5019 31.6772 36.4446C31.8935 36.2293 32.685 36.351 32.9804 36.6451ZM42.0374 40.5331C42.2546 41.491 42.4323 42.3495 42.4323 42.4407C42.4323 42.5375 42.0712 42.6068 41.5666 42.6068C41.0905 42.6068 40.7003 42.5538 40.6996 42.4893C40.6972 42.2922 41.5639 38.7155 41.6046 38.7548C41.6253 38.775 41.82 39.5753 42.0374 40.5331ZM20.9983 39.6348C21.3174 39.8284 21.6534 40.2398 21.8618 40.6918C22.1412 41.2977 22.2021 41.7156 22.1977 42.9984C22.1939 44.1257 22.1218 44.697 21.9406 45.0354C21.5284 45.8054 21.0681 46.1247 20.3696 46.1247C19.338 46.1247 19.2957 45.9787 19.2957 42.4202V39.3168L19.8859 39.3174C20.2106 39.3177 20.7111 39.4606 20.9983 39.6348Z" fill="#24ADB3"/>
</svg>
