<svg width="164" height="56" viewBox="0 0 164 56" fill="none" xmlns="http://www.w3.org/2000/svg">
<path fill-rule="evenodd" clip-rule="evenodd" d="M85.5531 27.2722L85.5577 43.5444L90.701 43.7703L95.8451 43.9954L96.0706 38.41L96.2969 32.8239L98.2146 38.1841L100.132 43.5444L105.694 43.7695C109.995 43.9433 111.255 43.7573 111.255 42.9471C111.255 42.3712 109.92 38.8243 108.289 35.0645L105.323 28.2294L107.33 24.1303L109.337 20.0313L109.721 28.0954C110.035 34.6908 110.397 36.5538 111.709 38.3204C114.229 41.7135 118.032 43.9273 121.341 43.9273H124.295V38.6497C124.295 33.6593 124.191 33.3469 122.378 32.892C119.991 32.294 119.86 30.3352 122.186 30.0059C123.45 29.8267 123.98 29.1636 124.167 27.5295C124.378 25.6825 125.113 26.8702 128.433 34.4212C130.786 39.7723 132.884 43.5444 133.51 43.5444C134.138 43.5444 136.714 38.8565 139.791 32.111C142.659 25.8226 145.007 20.2227 145.007 19.6675C145.007 18.9424 143.697 18.6575 140.367 18.6575C135.863 18.6575 135.697 18.7302 134.66 21.1462L133.592 23.6349L132.704 21.1462L131.816 18.6575H126.138H120.46V14.8288V11H115.09H109.721L109.722 15.0202L109.725 19.0404L104.403 18.7877L99.0807 18.5357L97.5311 21.4678L95.9809 24.4006L95.9471 17.7003L95.9134 11H90.731H85.5493L85.5531 27.2722ZM16.6 18.7509C15.3788 19.081 13.3936 20.2931 12.1893 21.4448L10 23.5384V33.7696V44L14.7943 43.7726L19.5885 43.5444L20.015 35.8869L20.4423 28.2294L20.5904 36.1135L20.7392 43.9969L25.917 43.771L31.0948 43.5444L31.5213 35.8869L31.9486 28.2294L32.0966 36.1135L32.2454 43.9969L37.4232 43.771L42.6011 43.5444V34.3194C42.6011 24.3807 41.9582 22.3254 38.0507 19.7694C35.5983 18.1659 30.429 18.1644 27.9781 19.7671C26.4501 20.7664 25.7636 20.856 24.9282 20.1645C23.2782 18.7969 19.0746 18.084 16.6 18.7509ZM53.8181 18.7295C50.5941 19.4018 47.7221 21.4839 45.4776 24.7758C41.9207 29.9929 44.0278 39.0165 49.6076 42.4593C51.7508 43.7818 53.196 43.9502 60.7595 43.7611L69.449 43.5444V35.504C69.449 28.8404 69.1859 27.018 67.9148 24.8639C67.071 23.4335 65.4686 21.585 64.354 20.7557C61.8541 18.8956 57.2593 18.012 53.8181 18.7295ZM79.2485 18.708C75.6731 19.4508 73.3082 21.2312 71.8645 24.2674C70.9241 26.2461 70.5996 29.1199 70.5996 35.4634V43.9969L75.7774 43.771L80.9552 43.5444L81.1762 36.4612C81.3925 29.5044 81.4301 29.378 83.2856 29.378C85.1098 29.378 85.1742 29.1973 85.1742 24.1073C85.1742 19.2464 85.04 18.8114 83.4483 18.5151C82.4986 18.3389 80.6093 18.4255 79.2485 18.708ZM58.7405 31.0052C59.2652 32.6554 58.1598 33.9373 56.193 33.961C54.9718 33.9756 54.1786 32.0612 54.7685 30.5266C55.4313 28.8014 58.1437 29.1276 58.7405 31.0052ZM142.079 35.7146C140.68 39.1788 139.348 42.444 139.12 42.9701C138.804 43.6998 140.556 43.9273 146.504 43.9273C150.793 43.9273 154.163 43.6684 153.994 43.3529C151.748 39.1673 145.544 29.3826 145.147 29.3971C144.859 29.4079 143.478 32.2503 142.079 35.7146Z" fill="#24ADB2"/>
</svg>
