<svg width="120" height="56" viewBox="0 0 120 56" fill="none" xmlns="http://www.w3.org/2000/svg">
<path fill-rule="evenodd" clip-rule="evenodd" d="M42.3153 5.77847C42.1617 6.20693 41.1042 10.5589 39.965 15.4507L37.8944 24.3446L36.7976 21.8659C36.158 20.4192 34.7895 18.8256 33.5141 18.039C31.639 16.8837 30.7302 16.743 27.1431 17.05C24.8415 17.2468 20.9933 17.4891 18.5904 17.5875L14.2213 17.7668L10.3988 33.9589C8.29574 42.8646 6.77858 50.3771 7.02655 50.6536C7.27452 50.9301 8.98968 51.0702 10.8373 50.965L14.1964 50.7738L15.6554 44.4396L17.1145 38.1047L19.3431 39.6131C23.2625 42.2649 29.3242 41.3133 33.213 37.4359L35.579 35.0768L36.3385 37.1706C37.2205 39.6031 39.7314 41.1208 42.8744 41.1208C46.2185 41.1208 48.2522 40.1294 48.2741 38.4896C48.2909 37.2272 48.3627 37.1917 48.9299 38.1626C49.8612 39.7563 52.863 41.1208 55.4382 41.1208C56.675 41.1208 58.5157 40.693 59.5294 40.1705C60.5856 39.6262 61.372 39.4929 61.372 39.8591C61.372 40.2626 64.3182 40.498 69.3619 40.498H77.3518L80.11 37.6956C81.6272 36.1542 83.0351 34.8931 83.2387 34.8931C83.4423 34.8931 84.223 36.1542 84.9744 37.6956L86.3398 40.498H90.4079C92.6452 40.498 94.4759 40.3106 94.4759 40.082C94.4759 39.8535 93.2105 37.3331 91.6646 34.4814L88.8526 29.2969L94.163 23.5761C97.083 20.4298 99.4733 17.6952 99.474 17.4997C99.4752 17.3041 97.3697 17.2362 94.7951 17.349L90.1143 17.5532L87.3454 20.7101L84.576 23.8663L83.5991 21.4393C81.9326 17.3004 81.9408 17.306 77.7515 17.3458C75.6135 17.3658 72.2475 17.3994 70.2726 17.42L66.6811 17.4573L65.0078 24.3751C63.1696 31.9754 61.7317 34.2703 58.8092 34.2703C57.3195 34.2703 55.1259 32.9233 55.1259 32.009C55.1259 31.8421 55.8305 28.5937 56.6912 24.7917C57.5519 20.9891 58.1846 17.8073 58.0966 17.7201C58.0085 17.6336 56.4132 17.4822 54.5507 17.3845C51.6919 17.2337 51.0823 17.395 50.635 18.4208C50.3434 19.0884 49.4458 22.858 48.6401 26.797C47.2178 33.7534 47.126 33.9645 45.4377 34.1651C43.7182 34.3687 43.7038 34.3407 44.0805 31.5974C44.4065 29.2283 48.943 9.31831 49.8924 6.08985C50.1735 5.13639 49.7375 5 46.404 5C43.9218 5 42.4971 5.27153 42.3153 5.77847ZM100.753 15.7428C99.3372 21.6511 98.0261 26.9889 97.8381 27.6035C97.5283 28.6193 97.9143 28.7052 102.051 28.5377L106.606 28.354L109.566 18.0782C111.193 12.4266 112.686 7.17223 112.882 6.40124C113.228 5.03612 113.11 5 108.281 5H103.325L100.753 15.7428ZM77.6716 30.4216C77.0051 31.3395 74.8734 33.632 72.9346 35.5159C69.9621 38.4043 69.4656 38.697 69.7648 37.3842C69.9596 36.5279 70.9615 32.1392 71.9915 27.6309C73.0214 23.1233 73.8884 19.1998 73.9177 18.9121C73.9477 18.625 75.077 20.7213 76.428 23.5711L78.884 28.7519L77.6716 30.4216ZM28.9657 24.3788C30.0519 25.4618 30.2299 26.2079 29.9638 28.562C29.5572 32.1597 27.3767 34.2703 24.0663 34.2703C20.9964 34.2703 19.5236 32.8056 19.5236 29.7521C19.5236 27.7885 19.9496 26.8705 21.6472 25.1778C24.1769 22.6556 26.9351 22.3542 28.9657 24.3788ZM96.7663 32.9102C96.2017 33.5317 95.574 34.8676 95.3716 35.8777C95.1036 37.2123 95.3703 38.1813 96.346 39.4182C97.3834 40.7328 98.2235 41.1208 100.034 41.1208C101.676 41.1208 102.784 40.6892 103.736 39.6797C105.448 37.8625 105.561 34.2622 103.952 32.8099C102.38 31.3919 98.0899 31.4516 96.7663 32.9102Z" fill="#24ADB3"/>
</svg>
